<svg width="240" height="240" viewBox="0 0 240 240" fill="none" xmlns="http://www.w3.org/2000/svg">
<path d="M236.117 120.056C236.117 144.113 229.12 166.588 217.014 185.336C214.348 189.628 211.461 193.468 208.351 197.308C186.694 223.398 154.264 240 118.169 240C82.0744 240 49.6444 223.285 27.9875 197.308C24.8778 193.468 21.9902 189.628 19.3247 185.449C16.215 180.48 13.2163 175.172 10.773 169.638C8.88491 165.233 6.99687 160.715 5.66413 155.972C3.33184 148.856 1.77698 141.741 0.888491 134.287C0.555307 132.48 0.444246 130.673 0.333184 128.64C0.222123 125.816 0 122.767 0 119.831C0 86.2871 13.4384 56.1318 35.2065 34.3341C37.4277 32.0753 39.871 29.9294 42.2033 27.7835C62.8607 10.6165 89.2934 0 118.169 0C141.27 0 162.927 6.77647 181.252 18.5224C182.141 18.9741 182.918 19.5388 183.807 20.2165C184.584 20.7812 185.473 21.2329 186.139 21.9106C190.581 25.0729 194.913 28.5741 198.8 32.4141C201.132 34.6729 203.464 36.9318 205.464 39.4165C208.018 42.3529 210.572 45.2894 212.794 48.5647C213.349 49.3553 213.793 50.0329 214.46 50.8235C215.015 51.6141 215.459 52.2918 216.125 53.0824C222.789 63.1341 227.898 74.2024 231.452 85.9482C232.007 88.0941 232.674 90.0141 233.118 92.16C235.006 100.969 236.117 110.344 236.117 120.056Z" fill="#EAEEF9"/>
<path d="M226.232 185.337V197.309H27.8764C24.7667 193.469 21.8791 189.629 19.2136 185.45H226.232V185.337Z" fill="#D5DDEA"/>
<path d="M231.674 93.1767H135.495V86.9649H230.008C230.785 88.8849 231.23 91.0308 231.674 93.1767Z" fill="#D5DDEA"/>
<path d="M213.238 51.7269V87.7551H164.148V21.3457H182.363C183.14 21.9104 184.028 22.3622 184.695 23.0398C189.137 26.2022 193.469 29.7034 197.356 33.5434C199.688 35.8022 202.02 38.061 204.019 40.5457C206.574 43.4822 209.128 46.4186 211.35 49.6939C212.127 50.2586 212.793 51.0492 213.238 51.7269Z" fill="white"/>
<path d="M213.238 51.7269C212.683 50.9363 212.238 50.2587 211.572 49.4681V86.174H165.815V22.9269H184.695C183.918 22.3622 183.251 21.9105 182.363 21.2328C181.585 20.6681 180.697 20.2163 179.808 19.5387H162.372V89.2234H214.571V53.9858C214.237 53.3081 213.793 52.5175 213.238 51.7269Z" fill="#D5DDEA"/>
<path d="M204.242 40.4332V75.6708H173.033V33.4308H197.356C199.91 35.6896 202.132 37.9485 204.242 40.4332Z" fill="#EAEEF9"/>
<path d="M79.7419 183.304C79.7419 184.32 78.9644 185.111 78.0759 185.45C77.9649 185.45 77.7428 185.45 77.6317 185.45H19.2134C16.1037 180.48 13.105 175.172 10.6617 169.638C13.3272 165.12 14.882 160.264 15.5484 155.972C15.8816 154.504 15.9926 153.148 16.1037 151.68H60.1951C60.3061 153.036 60.6393 154.391 60.9725 155.972C62.6384 164.104 66.9698 174.268 76.0768 181.158H77.5206C78.8534 181.158 79.7419 182.174 79.7419 183.304Z" fill="#CAD3E2"/>
<path d="M121.168 33.0918V150.889C121.168 153.713 118.947 155.859 116.282 155.859H5.6644C3.44317 149.082 1.88831 141.967 0.999819 134.513C0.666635 132.706 0.555574 130.899 0.444512 128.866C0.333451 125.929 0.111328 122.993 0.111328 120.057C0.111328 86.513 13.5498 56.3577 35.3178 34.5601C37.539 32.3012 39.9824 30.1553 42.3147 28.0095H116.059C119.058 28.0095 121.168 30.4942 121.168 33.0918Z" fill="#DEE5EF"/>
<path d="M121.168 33.0918V134.513H0.999819C0.666635 132.706 0.555574 130.899 0.444512 128.866C0.333451 125.929 0.111328 122.993 0.111328 120.057C0.111328 86.513 13.5498 56.3577 35.3178 34.5601C37.539 32.3012 39.9824 30.1553 42.3147 28.0095H116.059C119.058 28.0095 121.168 30.4942 121.168 33.0918Z" fill="#D5DDEA"/>
<path d="M114.726 34.56V128.979H0.555169C0.444108 126.042 0.221985 123.106 0.221985 120.169C0.221985 86.6259 13.6604 56.4706 35.4284 34.6729H114.726V34.56Z" fill="white"/>
<path d="M37.6493 149.873C39.8705 149.873 41.6475 148.066 41.6475 145.807C41.6475 143.548 39.8705 141.741 37.6493 141.741C35.428 141.741 33.6511 143.548 33.6511 145.807C33.6511 148.066 35.428 149.873 37.6493 149.873Z" fill="white"/>
<path d="M59.6403 157.779V162.635H56.3084C54.4204 162.635 52.7545 164.33 52.7545 166.25V173.026C52.7545 174.946 54.4204 176.64 56.3084 176.64H59.6403V181.835C59.6403 183.643 61.0841 185.224 62.9721 185.224H77.7433C79.5202 185.224 81.0751 183.755 81.0751 181.835V157.553H59.6403V157.779ZM56.3084 174.155C55.8642 174.155 55.4199 173.704 55.4199 173.252V166.475C55.4199 166.024 55.8642 165.572 56.3084 165.572H59.6403V174.268H56.3084V174.155Z" fill="#A1D700" fill-opacity="0.5"/>
<path d="M70.5238 129.204C71.8565 132.593 72.1897 135.981 70.1906 138.578C68.3025 141.289 66.8587 144.903 68.8579 147.727C70.7459 150.437 71.4123 152.583 70.6348 153.938C69.8574 155.294 70.6348 153.826 73.1892 150.889C75.4105 148.517 71.4123 146.484 71.3012 144.564C71.1901 142.757 73.4114 138.917 73.4114 136.433C73.3003 133.722 72.0786 130.221 70.5238 129.204Z" fill="white"/>
<path d="M64.9711 144C65.5264 145.694 65.7485 147.388 64.86 148.743C63.9715 150.099 63.1941 151.906 64.3047 153.261C65.3043 154.616 65.5264 155.633 65.1932 156.423C64.86 157.214 65.1932 156.423 66.526 154.955C67.5255 153.713 65.6375 152.696 65.5264 151.793C65.4153 150.889 66.526 149.082 66.526 147.727C66.4149 146.259 65.8596 144.565 64.9711 144Z" fill="white"/>
<path d="M124.389 160.941C125.61 158.23 129.719 153.035 133.94 150.889C134.495 150.55 135.162 150.776 135.384 151.341C136.605 153.487 139.604 158.908 138.493 164.216C137.05 170.654 124.389 160.941 124.389 160.941Z" fill="#989FB0"/>
<path d="M119.169 161.393C119.169 161.393 113.838 155.52 110.395 153.374C109.506 152.922 108.507 153.261 108.063 154.164C104.287 161.393 104.287 169.75 105.175 174.155C106.175 178.899 114.171 165.797 114.171 165.797L119.169 161.393Z" fill="#989FB0"/>
<path d="M116.725 163.313C116.725 163.313 113.393 159.699 111.394 158.344C110.839 158.118 110.173 158.231 109.95 158.796C107.729 163.313 107.618 168.396 108.285 171.106C108.951 174.043 113.838 165.911 113.838 165.911L116.725 163.313Z" fill="#D5DDEA"/>
<path d="M127.832 161.28C128.498 159.473 131.163 156.084 133.718 154.729C134.051 154.616 134.384 154.729 134.717 155.068C135.384 156.423 137.272 159.924 136.605 163.425C135.717 167.717 127.832 161.28 127.832 161.28Z" fill="#D5DDEA"/>
<path d="M232.007 231.191C220.679 226.334 222.345 211.2 223.456 197.195C224.455 197.195 225.344 197.195 226.343 197.195C226.343 193.242 226.343 189.176 226.343 185.224C226.343 185.111 221.123 185.336 220.568 185.336C218.014 185.336 216.681 183.868 214.571 182.965C214.793 183.078 214.016 189.176 213.904 189.854C210.239 206.231 202.798 211.991 209.795 219.558C211.905 221.816 212.905 226.673 208.018 228.819C203.132 230.739 200.244 223.511 198.578 220.009C195.69 213.911 198.134 204.875 201.243 186.353C201.243 186.353 166.703 186.24 156.819 186.353C156.153 189.176 150.599 208.828 149.822 212.894C148.6 218.993 150.599 223.398 151.044 226.673C151.488 230.174 145.713 232.546 141.381 228.593C135.828 223.398 141.715 215.379 142.492 197.534C142.492 196.518 142.825 185.562 142.159 185.562C130.719 185.562 119.391 185.449 107.952 185.675C106.619 185.675 104.62 186.24 103.843 184.998C97.6232 175.736 113.394 154.842 130.942 160.264C133.829 161.167 136.939 163.087 140.049 163.313C140.049 163.313 141.826 162.748 150.822 156.085C165.926 147.275 184.917 147.953 196.69 150.776C212.572 154.616 215.348 167.605 219.902 173.365C226.454 181.722 232.674 183.868 231.785 204.311C231.452 212.555 231.341 216.96 238.005 221.704C242.447 225.318 238.893 234.127 232.007 231.191Z" fill="white"/>
<path d="M126.054 183.642C124.833 183.755 123.278 183.981 121.834 183.981C121.39 183.981 120.834 183.981 120.39 184.094C115.503 184.207 110.839 183.529 110.173 179.802C109.728 176.866 113.838 173.139 116.059 171.896C123.611 167.604 131.385 173.929 132.274 177.769C132.94 181.044 129.497 183.077 126.054 183.642Z" fill="#D5DDEA"/>
<path d="M121.168 179.576C122.39 179.576 123.39 179.125 123.39 178.447C123.39 177.769 122.39 177.318 121.168 177.318C119.947 177.318 118.947 177.769 118.947 178.447C118.947 179.125 119.947 179.576 121.168 179.576Z" fill="#989FB0"/>
<path d="M122.279 179.577V183.981C121.612 183.981 120.724 184.094 120.058 184.094V179.689L122.279 179.577Z" fill="#989FB0"/>
<path d="M150.933 226.673C151.377 230.174 145.602 232.546 141.27 228.593C136.939 224.527 140.937 210.861 142.048 203.633C142.603 199.793 142.603 195.163 142.492 191.548C144.38 193.92 149.045 199.906 152.376 203.068C151.377 207.021 150.266 210.636 149.822 213.12C148.6 218.88 150.377 223.285 150.933 226.673Z" fill="#D5DDEA"/>
<path d="M209.573 219.671C211.683 221.93 212.683 226.786 207.796 228.932C202.909 230.852 200.022 223.624 198.356 220.122C196.69 216.621 197.023 208.264 198.356 201.487C198.8 199.115 199.355 196.518 199.689 194.259C200.688 194.824 201.799 195.501 202.687 196.179C205.02 197.986 207.352 200.132 210.017 201.6C208.796 205.101 207.796 207.925 207.13 209.28C205.686 213.007 207.463 217.412 209.573 219.671Z" fill="#D5DDEA"/>
<path d="M237.893 230.513C234.562 233.675 228.897 230.061 225.788 226.447C222.678 222.833 222.012 211.539 223.122 201.713C223.233 200.019 223.455 198.55 223.233 197.195H226.232V185.223H217.125C217.014 185.11 216.792 184.884 216.681 184.772C216.792 184.32 217.014 183.755 217.125 183.303C217.902 180.932 216.681 178.56 219.346 173.477C220.124 174.72 220.79 175.397 221.567 176.075C223.011 177.43 224.566 178.447 227.231 182.287C232.451 189.515 231.674 204.762 231.452 210.748C231.341 216.96 235.45 220.8 238.004 221.816C240.226 222.946 241.114 227.35 237.893 230.513Z" fill="#D5DDEA"/>
<path d="M128.942 166.25H128.831L125.721 165.798C125.166 165.798 124.833 165.233 124.833 164.781C124.833 164.217 125.388 163.878 125.832 163.878L128.942 164.33C129.498 164.33 129.831 164.894 129.831 165.346C129.831 166.024 129.386 166.25 128.942 166.25Z" fill="#AAB2C5"/>
<path d="M113.949 166.588H114.06L117.17 166.136C117.725 166.136 118.058 165.572 118.058 165.12C118.058 164.555 117.503 164.216 117.059 164.216L113.949 164.668C113.394 164.668 113.06 165.233 113.06 165.685C113.282 166.136 113.505 166.475 113.949 166.588Z" fill="#AAB2C5"/>
<path d="M138.011 86.6224L137.077 81.1724L158.048 77.4558L158.982 82.9058L147.657 102.98L162.22 100.399L163.154 105.849L141.251 109.731L140.317 104.281L151.642 84.2066L138.011 86.6224Z" fill="#A1D700" fill-opacity="0.5"/>
<path d="M129.981 124.219L130.955 120.979L143.275 124.807L142.302 128.048L130.934 135.734L139.431 138.375L138.457 141.615L125.499 137.588L126.473 134.348L137.841 126.661L129.981 124.219Z" fill="#A1D700" fill-opacity="0.5"/>
<path d="M215.57 185.562H226.232V185.449V197.421H213.127" fill="#D5DDEA"/>
</svg>
