<svg width="13" height="15" viewBox="0 0 13 15" fill="none" xmlns="http://www.w3.org/2000/svg">
<path d="M12.2148 2.55469C12.4609 2.80078 12.625 3.12891 12.625 3.48438V10.8125C12.625 11.5508 12.0234 12.125 11.3125 12.125H9.125V13.4375C9.125 14.1758 8.52344 14.75 7.8125 14.75H1.6875C0.949219 14.75 0.375 14.1758 0.375 13.4375V4.6875C0.375 3.97656 0.949219 3.375 1.6875 3.375H3.875V2.0625C3.875 1.35156 4.44922 0.75 5.1875 0.75H9.89062C10.2461 0.75 10.5742 0.914062 10.8203 1.16016L12.2148 2.55469ZM7.64844 13.4375C7.73047 13.4375 7.8125 13.3828 7.8125 13.2734V12.125H5.1875C4.44922 12.125 3.875 11.5508 3.875 10.8125V4.6875H1.85156C1.74219 4.6875 1.6875 4.76953 1.6875 4.85156V13.2734C1.6875 13.3828 1.74219 13.4375 1.85156 13.4375H7.64844ZM11.1484 10.8125C11.2305 10.8125 11.3125 10.7578 11.3125 10.6484V5.125H8.90625C8.52344 5.125 8.25 4.85156 8.25 4.46875V2.0625H5.35156C5.24219 2.0625 5.1875 2.14453 5.1875 2.22656V10.6484C5.1875 10.7578 5.24219 10.8125 5.35156 10.8125H11.1484ZM11.3125 3.8125V3.56641C11.3125 3.51172 11.2852 3.48438 11.2578 3.45703L9.91797 2.11719C9.89062 2.08984 9.86328 2.0625 9.80859 2.0625H9.5625V3.8125H11.3125Z" fill="#15639E"/>
</svg>
