<svg width="284" height="99" viewBox="0 0 284 99" fill="none" xmlns="http://www.w3.org/2000/svg">
<path d="M0.39978 98H269.031" stroke="#D6DCE8" stroke-width="2" stroke-miterlimit="10" stroke-linejoin="round"/>
<path d="M274.971 98H283.6" stroke="#D6DCE8" stroke-width="2" stroke-miterlimit="10" stroke-linejoin="round"/>
<path d="M265.536 79.6778H266.552C268.194 79.6778 269.445 81.7734 269.445 84.2388C269.445 86.8274 268.116 88.7998 266.552 88.7998H265.536" fill="#F1F3F9"/>
<path d="M265.536 79.6778H266.552C268.194 79.6778 269.445 81.7734 269.445 84.2388C269.445 86.8274 268.116 88.7998 266.552 88.7998H265.536" stroke="#D6DCE8" stroke-width="2" stroke-miterlimit="10" stroke-linejoin="round"/>
<path d="M257.345 97.9218H244.951C240.424 97.9218 236.867 94.3454 236.867 90.0328V77.6209C236.867 75.8327 238.376 74.4653 240.101 74.4653H262.303C264.135 74.4653 265.536 75.9379 265.536 77.6209V89.9276C265.429 94.3454 261.764 97.9218 257.345 97.9218Z" fill="#E7EDF8"/>
<path d="M39.8062 61.3818V7.02635C39.8062 4.62217 38.0899 2.74063 35.8969 2.74063C33.7038 2.74063 31.9874 4.62217 31.9874 7.02635V61.3818" fill="#E7EDF8"/>
<path d="M27.2381 24.4306C30.9092 28.1016 32.4208 33.0683 31.8809 37.8191C27.1301 38.3589 22.1634 36.8473 18.4924 33.1763C14.8214 29.5052 13.3097 24.5385 13.8496 19.7878C18.6004 19.2479 23.5671 20.7595 27.2381 24.4306Z" fill="#E7EDF8"/>
<path d="M54.4186 19.6982C50.6334 23.4834 45.5865 25.0605 40.6448 24.5348C40.119 19.593 41.6962 14.5461 45.4814 10.7609C49.2666 6.97577 54.3135 5.39861 59.2552 5.92433C59.781 10.8661 58.2038 15.913 54.4186 19.6982Z" fill="#E7EDF8"/>
<path d="M52.8375 62.8624V66.5641C52.8375 67.4102 52.2079 68.0448 51.3682 68.0448C50.5286 68.0448 49.8989 68.6793 49.8989 69.5254V97.8696H24.5009V69.5254C24.5009 68.6793 23.8712 68.0448 23.0316 68.0448C22.192 68.0448 21.5623 67.4102 21.5623 66.5641V62.8624C21.5623 62.0163 22.192 61.3818 23.0316 61.3818H51.1584C52.1029 61.3818 52.8375 62.0163 52.8375 62.8624Z" fill="#E7EDF8"/>
<path d="M54.4186 47.2463C50.6334 51.0314 45.5865 52.6086 40.6448 52.0829C40.119 47.1411 41.6962 42.0942 45.4814 38.309C49.2666 34.5238 54.3135 32.9467 59.2552 33.4724C59.781 38.4142 58.2038 43.5662 54.4186 47.2463Z" fill="#E7EDF8"/>
<path d="M203.725 0H69.1244C66.3562 0 63.9341 2.42291 63.9341 5.19195V92.0705C63.9341 94.8396 66.3562 93.8012 69.1244 93.8012H203.379C206.148 93.8012 208.57 94.8396 208.57 92.0705V5.19195C208.916 2.42291 206.494 0 203.725 0Z" fill="#D5DDEA"/>
<path d="M199.202 5.04871H73.9387C71.3626 5.04871 69.1085 7.21779 69.1085 9.69675V87.474C69.1085 89.9529 71.3626 89.0233 73.9387 89.0233H198.88C201.456 89.0233 203.71 89.9529 203.71 87.474V9.69675C204.032 7.21779 201.778 5.04871 199.202 5.04871Z" fill="white"/>
<path d="M228.985 88.9553V91.7244C228.985 94.8395 226.216 97.6086 223.102 97.6086H49.7472C46.633 97.6086 43.8649 94.8395 43.8649 91.7244V88.9553H228.985Z" fill="#D5DDEA"/>
<path d="M152.514 88.9553V89.9937C152.514 91.7244 151.13 93.455 149.054 93.455H123.449C121.719 93.455 119.989 92.0705 119.989 89.9937V88.9553H152.514Z" fill="#E9EFF8"/>
</svg>
