<svg width="26" height="26" viewBox="0 0 26 26" fill="none" xmlns="http://www.w3.org/2000/svg">
<path d="M22.7444 15.715C22.7444 6.41446 14.5303 2.1096 10.6619 1.10303C12.1104 4.72446 12.0306 7.40431 10.1604 10.7063C10.089 10.8289 9.98919 10.9325 9.86942 11.0086C9.74965 11.0846 9.61339 11.1309 9.47207 11.1434C9.33075 11.156 9.18848 11.1345 9.05718 11.0807C8.92588 11.027 8.80938 10.9425 8.71744 10.8345L6.3403 8.13789C0.118871 14.7456 3.69944 25.374 13.5479 24.88C21.0823 24.4157 22.7444 19.3977 22.7444 15.715ZM10.5244 20.2873L16.6233 14.1885L10.5244 20.2873Z" fill="white" fill-opacity="0.3"/>
<path d="M10.5244 20.2873L16.6233 14.1885M22.7444 15.715C22.7444 6.41446 14.5303 2.1096 10.6619 1.10303C12.1104 4.72446 12.0306 7.40431 10.1604 10.7063C10.089 10.8289 9.98919 10.9325 9.86942 11.0086C9.74965 11.0846 9.61339 11.1309 9.47207 11.1434C9.33075 11.156 9.18848 11.1345 9.05718 11.0807C8.92588 11.027 8.80938 10.9425 8.71744 10.8345L6.3403 8.13788C0.118871 14.7456 3.69944 25.374 13.5479 24.88C21.0823 24.4157 22.7444 19.3977 22.7444 15.715Z" stroke="#02002E" stroke-width="1.25" stroke-linecap="round" stroke-linejoin="round"/>
<path d="M11.2636 15.0763C11.1405 15.0763 11.0224 15.0274 10.9353 14.9403C10.8482 14.8532 10.7993 14.7351 10.7993 14.612C10.7993 14.4889 10.8482 14.3708 10.9353 14.2837C11.0224 14.1966 11.1405 14.1477 11.2636 14.1477M11.2636 15.0763C11.3867 15.0763 11.5048 15.0274 11.5919 14.9403C11.679 14.8532 11.7279 14.7351 11.7279 14.612C11.7279 14.4889 11.679 14.3708 11.5919 14.2837C11.5048 14.1966 11.3867 14.1477 11.2636 14.1477M16.2017 20.3301C16.0786 20.3301 15.9605 20.2812 15.8734 20.1941C15.7864 20.1071 15.7375 19.989 15.7375 19.8658C15.7375 19.7427 15.7864 19.6246 15.8734 19.5375C15.9605 19.4505 16.0786 19.4016 16.2017 19.4016M16.2017 20.3301C16.3249 20.3301 16.443 20.2812 16.53 20.1941C16.6171 20.1071 16.666 19.989 16.666 19.8658C16.666 19.7427 16.6171 19.6246 16.53 19.5375C16.443 19.4505 16.3249 19.4016 16.2017 19.4016" fill="white" fill-opacity="0.3"/>
<path d="M11.2636 15.0763C11.1405 15.0763 11.0224 15.0274 10.9353 14.9403C10.8482 14.8532 10.7993 14.7351 10.7993 14.612C10.7993 14.4889 10.8482 14.3708 10.9353 14.2837C11.0224 14.1966 11.1405 14.1477 11.2636 14.1477C11.3867 14.1477 11.5048 14.1966 11.5919 14.2837C11.679 14.3708 11.7279 14.4889 11.7279 14.612C11.7279 14.7351 11.679 14.8532 11.5919 14.9403C11.5048 15.0274 11.3867 15.0763 11.2636 15.0763ZM16.2017 20.3301C16.0786 20.3301 15.9605 20.2812 15.8734 20.1941C15.7864 20.1071 15.7375 19.989 15.7375 19.8658C15.7375 19.7427 15.7864 19.6246 15.8734 19.5375C15.9605 19.4505 16.0786 19.4016 16.2017 19.4016C16.3249 19.4016 16.443 19.4505 16.53 19.5375C16.6171 19.6246 16.666 19.7427 16.666 19.8658C16.666 19.989 16.6171 20.1071 16.53 20.1941C16.443 20.2812 16.3249 20.3301 16.2017 20.3301Z" stroke="#02002E" stroke-width="1.25" stroke-linecap="round" stroke-linejoin="round"/>
</svg>
