<svg width="300" height="218" viewBox="0 0 300 218" fill="none" xmlns="http://www.w3.org/2000/svg">
<path d="M255.133 105.602C255.133 129.388 247.169 151.739 233.895 169.374C226.543 179.011 217.762 187.418 207.551 193.98C191.214 204.848 171.405 210.999 150.371 210.999C92.5779 211.204 45.6085 164.042 45.6085 105.602C45.6085 47.3672 92.3737 0 150.371 0C171.405 0 191.01 6.15158 207.551 17.0194C217.762 23.5811 226.543 31.9882 233.895 41.6257C247.169 59.4653 255.133 81.611 255.133 105.602Z" fill="#EAEEF9"/>
<path d="M70.587 91.4825H69.3223C68.3737 91.4825 67.7414 91.1874 67.7414 90.7448C67.7414 90.3021 68.3737 90.007 69.3223 90.007H70.587C71.5356 90.007 72.1679 90.3021 72.1679 90.7448C72.1679 91.1874 71.5356 91.4825 70.587 91.4825Z" fill="#2D5887"/>
<path d="M70.587 97.3846H69.3223C68.3737 97.3846 67.7414 97.0895 67.7414 96.6469C67.7414 96.2042 68.3737 95.9091 69.3223 95.9091H70.587C71.5356 95.9091 72.1679 96.2042 72.1679 96.6469C72.1679 97.0895 71.5356 97.3846 70.587 97.3846Z" fill="#2D5887"/>
<path d="M70.587 103.287H69.3223C68.3737 103.287 67.7414 102.992 67.7414 102.549C67.7414 102.106 68.3737 101.811 69.3223 101.811H70.587C71.5356 101.811 72.1679 102.106 72.1679 102.549C72.1679 102.992 71.5356 103.287 70.587 103.287Z" fill="#2D5887"/>
<path d="M70.587 109.189H69.3223C68.3737 109.189 67.7414 108.894 67.7414 108.451C67.7414 108.008 68.3737 107.713 69.3223 107.713H70.587C71.5356 107.713 72.1679 108.008 72.1679 108.451C72.1679 108.894 71.5356 109.189 70.587 109.189Z" fill="#2D5887"/>
<path d="M128.308 91.4825H107.51C106.667 91.4825 106.105 91.1874 106.105 90.7448C106.105 90.3021 106.667 90.007 107.51 90.007H128.308C129.151 90.007 129.713 90.3021 129.713 90.7448C129.713 91.1874 129.151 91.4825 128.308 91.4825Z" fill="white"/>
<path d="M172.621 109.189H107.462C106.648 109.189 106.105 108.894 106.105 108.451C106.105 108.008 106.648 107.713 107.462 107.713H172.621C173.436 107.713 173.979 108.008 173.979 108.451C173.979 108.894 173.436 109.189 172.621 109.189Z" fill="url(#paint0_linear_3436_13787)"/>
<path d="M128.389 97.3846H100.052C99.257 97.3846 98.7274 97.0895 98.7274 96.6469C98.7274 96.2042 99.257 95.9091 100.052 95.9091H128.389C129.184 95.9091 129.713 96.2042 129.713 96.6469C129.713 97.0895 129.184 97.3846 128.389 97.3846Z" fill="#2D5887"/>
<path d="M150.525 103.287H100.049C99.2559 103.287 98.7274 102.992 98.7274 102.549C98.7274 102.106 99.2559 101.811 100.049 101.811H150.525C151.318 101.811 151.846 102.106 151.846 102.549C151.582 102.992 151.053 103.287 150.525 103.287Z" fill="#2D5887"/>
<path d="M172.542 103.287H153.284C152.421 103.287 151.846 102.992 151.846 102.549C151.846 102.106 152.421 101.811 153.284 101.811H172.542C173.404 101.811 173.979 102.106 173.979 102.549C173.979 102.992 173.404 103.287 172.542 103.287Z" fill="white"/>
<path d="M184.387 103.287H176.85C176.013 103.287 175.455 102.992 175.455 102.549C175.455 102.106 176.013 101.811 176.85 101.811H184.387C185.225 101.811 185.783 102.106 185.783 102.549C185.783 102.992 185.225 103.287 184.387 103.287Z" fill="url(#paint1_linear_3436_13787)"/>
<path d="M22.0001 184.441H269.888" stroke="#D6DEE8" stroke-width="2" stroke-miterlimit="10" stroke-linecap="round" stroke-linejoin="round"/>
<g filter="url(#filter0_d_3436_13787)">
<path d="M196.112 90.007V184.441H62.2286C56.9472 184.441 52.9862 180.196 52.9862 175.156V90.007H196.112Z" fill="white"/>
</g>
<path d="M249.231 90.007V175.156C249.231 180.462 244.827 184.441 239.598 184.441H196.112V90.007H249.231Z" fill="#DAE1ED"/>
<g filter="url(#filter1_d_3436_13787)">
<path d="M249.231 90.007V175.156C249.231 180.462 244.827 184.441 239.598 184.441H196.112V90.007H249.231Z" fill="#E7EAF4"/>
</g>
<path d="M104.629 90.007L132.782 45.7412H277.266L248.316 90.007H104.629Z" fill="#C5CDDB"/>
<g filter="url(#filter2_d_3436_13787)">
<path d="M104.629 90.007L132.782 45.7412H277.266L248.316 90.007H104.629Z" fill="url(#paint2_linear_3436_13787)"/>
</g>
<path opacity="0.3" d="M249.231 90.2656V140.175H210.498C206.902 140.175 204.412 137.847 203.858 134.486L196.112 90.007L249.231 90.2656Z" fill="url(#paint3_linear_3436_13787)"/>
<g filter="url(#filter3_d_3436_13787)">
<path d="M248.118 90.007H196.112L222.519 130.032C224.405 132.682 227.369 134.273 230.333 134.273H270.752C273.447 134.273 275.333 131.092 273.716 128.971L248.118 90.007Z" fill="url(#paint4_linear_3436_13787)"/>
</g>
<g filter="url(#filter4_d_3436_13787)">
<path d="M196.112 90.007L167.762 45.7412H22.0001L51.4199 90.007H196.112Z" fill="#E7EAF4"/>
</g>
<path d="M124.416 144.601H68.6127C67.3089 144.601 66.2659 143.618 66.2659 142.388C66.2659 141.159 67.3089 140.175 68.6127 140.175H124.416C125.719 140.175 126.762 141.159 126.762 142.388C126.502 143.618 125.719 144.601 124.416 144.601Z" fill="#DAE1ED"/>
<path d="M124.416 154.93H68.6127C67.3089 154.93 66.2659 154.274 66.2659 153.455C66.2659 152.635 67.3089 151.979 68.6127 151.979H124.416C125.719 151.979 126.762 152.635 126.762 153.455C126.502 154.274 125.719 154.93 124.416 154.93Z" fill="#DAE1ED"/>
<path d="M94.8683 166.734H68.6494C67.3252 166.734 66.2659 166.078 66.2659 165.259C66.2659 164.439 67.3252 163.783 68.6494 163.783H94.8683C96.1925 163.783 97.2519 164.439 97.2519 165.259C96.987 166.078 95.9277 166.734 94.8683 166.734Z" fill="#DAE1ED"/>
<defs>
<filter id="filter0_d_3436_13787" x="30.9862" y="79.007" width="187.126" height="138.434" filterUnits="userSpaceOnUse" color-interpolation-filters="sRGB">
<feFlood flood-opacity="0" result="BackgroundImageFix"/>
<feColorMatrix in="SourceAlpha" type="matrix" values="0 0 0 0 0 0 0 0 0 0 0 0 0 0 0 0 0 0 127 0" result="hardAlpha"/>
<feOffset dy="11"/>
<feGaussianBlur stdDeviation="11"/>
<feColorMatrix type="matrix" values="0 0 0 0 0.397708 0 0 0 0 0.47749 0 0 0 0 0.575 0 0 0 0.27 0"/>
<feBlend mode="normal" in2="BackgroundImageFix" result="effect1_dropShadow_3436_13787"/>
<feBlend mode="normal" in="SourceGraphic" in2="effect1_dropShadow_3436_13787" result="shape"/>
</filter>
<filter id="filter1_d_3436_13787" x="174.112" y="79.007" width="97.1189" height="138.434" filterUnits="userSpaceOnUse" color-interpolation-filters="sRGB">
<feFlood flood-opacity="0" result="BackgroundImageFix"/>
<feColorMatrix in="SourceAlpha" type="matrix" values="0 0 0 0 0 0 0 0 0 0 0 0 0 0 0 0 0 0 127 0" result="hardAlpha"/>
<feOffset dy="11"/>
<feGaussianBlur stdDeviation="11"/>
<feColorMatrix type="matrix" values="0 0 0 0 0.397708 0 0 0 0 0.47749 0 0 0 0 0.575 0 0 0 0.27 0"/>
<feBlend mode="normal" in2="BackgroundImageFix" result="effect1_dropShadow_3436_13787"/>
<feBlend mode="normal" in="SourceGraphic" in2="effect1_dropShadow_3436_13787" result="shape"/>
</filter>
<filter id="filter2_d_3436_13787" x="82.6294" y="34.7412" width="216.636" height="88.2657" filterUnits="userSpaceOnUse" color-interpolation-filters="sRGB">
<feFlood flood-opacity="0" result="BackgroundImageFix"/>
<feColorMatrix in="SourceAlpha" type="matrix" values="0 0 0 0 0 0 0 0 0 0 0 0 0 0 0 0 0 0 127 0" result="hardAlpha"/>
<feOffset dy="11"/>
<feGaussianBlur stdDeviation="11"/>
<feColorMatrix type="matrix" values="0 0 0 0 0.397708 0 0 0 0 0.47749 0 0 0 0 0.575 0 0 0 0.27 0"/>
<feBlend mode="normal" in2="BackgroundImageFix" result="effect1_dropShadow_3436_13787"/>
<feBlend mode="normal" in="SourceGraphic" in2="effect1_dropShadow_3436_13787" result="shape"/>
</filter>
<filter id="filter3_d_3436_13787" x="174.112" y="79.007" width="122.203" height="88.2657" filterUnits="userSpaceOnUse" color-interpolation-filters="sRGB">
<feFlood flood-opacity="0" result="BackgroundImageFix"/>
<feColorMatrix in="SourceAlpha" type="matrix" values="0 0 0 0 0 0 0 0 0 0 0 0 0 0 0 0 0 0 127 0" result="hardAlpha"/>
<feOffset dy="11"/>
<feGaussianBlur stdDeviation="11"/>
<feColorMatrix type="matrix" values="0 0 0 0 0.397708 0 0 0 0 0.47749 0 0 0 0 0.575 0 0 0 0.27 0"/>
<feBlend mode="normal" in2="BackgroundImageFix" result="effect1_dropShadow_3436_13787"/>
<feBlend mode="normal" in="SourceGraphic" in2="effect1_dropShadow_3436_13787" result="shape"/>
</filter>
<filter id="filter4_d_3436_13787" x="6.10352e-05" y="34.7412" width="218.112" height="88.2657" filterUnits="userSpaceOnUse" color-interpolation-filters="sRGB">
<feFlood flood-opacity="0" result="BackgroundImageFix"/>
<feColorMatrix in="SourceAlpha" type="matrix" values="0 0 0 0 0 0 0 0 0 0 0 0 0 0 0 0 0 0 127 0" result="hardAlpha"/>
<feOffset dy="11"/>
<feGaussianBlur stdDeviation="11"/>
<feColorMatrix type="matrix" values="0 0 0 0 0.397708 0 0 0 0 0.47749 0 0 0 0 0.575 0 0 0 0.27 0"/>
<feBlend mode="normal" in2="BackgroundImageFix" result="effect1_dropShadow_3436_13787"/>
<feBlend mode="normal" in="SourceGraphic" in2="effect1_dropShadow_3436_13787" result="shape"/>
</filter>
<linearGradient id="paint0_linear_3436_13787" x1="106.41" y1="108.481" x2="174.058" y2="108.481" gradientUnits="userSpaceOnUse">
<stop stop-color="#FF66A9"/>
<stop offset="1" stop-color="#F53689"/>
</linearGradient>
<linearGradient id="paint1_linear_3436_13787" x1="175.523" y1="102.504" x2="185.781" y2="102.504" gradientUnits="userSpaceOnUse">
<stop stop-color="#83A6FF"/>
<stop offset="1" stop-color="#5A78FF"/>
</linearGradient>
<linearGradient id="paint2_linear_3436_13787" x1="190.891" y1="44.7173" x2="190.891" y2="90.4842" gradientUnits="userSpaceOnUse">
<stop stop-color="#FDFEFF"/>
<stop offset="0.9964" stop-color="#ECF0F5"/>
</linearGradient>
<linearGradient id="paint3_linear_3436_13787" x1="222.683" y1="141.205" x2="222.683" y2="95.5076" gradientUnits="userSpaceOnUse">
<stop offset="0.00289017" stop-color="#606673" stop-opacity="0"/>
<stop offset="1" stop-color="#AAB2C5"/>
</linearGradient>
<linearGradient id="paint4_linear_3436_13787" x1="235.188" y1="88.9831" x2="235.188" y2="134.75" gradientUnits="userSpaceOnUse">
<stop stop-color="#FDFEFF"/>
<stop offset="0.9964" stop-color="#ECF0F5"/>
</linearGradient>
</defs>
</svg>
