<svg width="234" height="233" viewBox="0 0 234 233" fill="none" xmlns="http://www.w3.org/2000/svg">
<circle cx="129.23" cy="128.137" r="95.8982" fill="#EAEEF9"/>
<circle cx="21.8571" cy="101.089" r="21.8571" fill="#EAEEF9"/>
<circle cx="63.9322" cy="13.6607" r="13.6607" fill="#E1CAFF"/>
<circle cx="214.473" cy="31.4195" r="10.6554" fill="#E1CAFF"/>
<circle cx="211.195" cy="191.523" r="5.19107" fill="#E1CAFF"/>
<path d="M154.228 37.5345C153.82 37.4479 153.82 36.8665 154.228 36.7799L160.386 35.4703C160.535 35.4388 160.651 35.3231 160.683 35.1748L162.009 29.0599C162.097 28.6546 162.675 28.6546 162.763 29.0599L164.089 35.1748C164.121 35.3231 164.237 35.4388 164.385 35.4703L170.544 36.7799C170.951 36.8665 170.951 37.4479 170.544 37.5345L164.385 38.8441C164.237 38.8756 164.121 38.9913 164.089 39.1396L162.763 45.2545C162.675 45.6598 162.097 45.6598 162.009 45.2545L160.683 39.1396C160.651 38.9913 160.535 38.8756 160.386 38.8441L154.228 37.5345Z" fill="#E1CAFF"/>
<path d="M16.235 140.488C16.3573 139.911 17.1819 139.911 17.3042 140.488L19.1308 149.118C19.1753 149.328 19.339 149.493 19.549 149.538L28.0894 151.399C28.6629 151.524 28.6629 152.342 28.0894 152.467L19.549 154.327C19.339 154.373 19.1753 154.538 19.1308 154.748L17.3042 163.378C17.1819 163.955 16.3573 163.955 16.235 163.378L14.4084 154.748C14.3639 154.538 14.2002 154.373 13.9901 154.327L5.4497 152.467C4.87621 152.342 4.87622 151.524 5.44971 151.399L13.9901 149.538C14.2002 149.493 14.3639 149.328 14.4084 149.118L16.235 140.488Z" fill="#E1CAFF"/>
<path d="M154.465 215.813C154.587 215.235 155.411 215.235 155.534 215.813L156.599 220.847C156.644 221.058 156.808 221.222 157.018 221.268L162.014 222.357C162.588 222.482 162.588 223.3 162.014 223.424L157.018 224.513C156.808 224.559 156.644 224.723 156.599 224.934L155.534 229.968C155.411 230.546 154.587 230.546 154.465 229.968L153.399 224.934C153.354 224.723 153.191 224.559 152.981 224.513L147.984 223.424C147.411 223.3 147.411 222.482 147.984 222.357L152.981 221.268C153.191 221.222 153.354 221.058 153.399 220.847L154.465 215.813Z" fill="#E1CAFF"/>
<path d="M228.383 73.1898L161.507 60.3748C158.543 59.8069 155.68 61.7492 155.112 64.7131L137.978 154.131C137.654 155.817 138.143 157.558 139.296 158.83L170.373 193.109C172.178 195.1 175.162 195.483 177.411 194.013L213.632 170.342C214.873 169.532 215.731 168.252 216.01 166.797L232.721 79.5848C233.289 76.6209 231.347 73.7577 228.383 73.1898Z" fill="#BFC8D6" stroke="#BFC8D6" stroke-width="2"/>
<path d="M181.059 91.8607C176.111 90.8037 171.25 93.9177 170.204 98.8171C169.359 102.772 168.921 112.494 182.329 125.28C182.569 125.507 182.868 125.664 183.191 125.733C183.515 125.802 183.852 125.781 184.164 125.672C201.626 119.481 205.199 110.429 206.044 106.474C207.091 101.575 203.927 96.7462 198.979 95.6892C194.031 94.6321 188.87 99.151 188.87 99.151C188.87 99.151 186.007 92.9178 181.059 91.8607Z" fill="white"/>
<circle cx="175.653" cy="170.818" r="7.10357" fill="#EAEEF9"/>
<path d="M102.903 31.6766L103.219 31.5715C106.489 30.5713 110.005 32.301 111.183 35.5525L152.542 149.74C153.139 151.389 153.04 153.209 152.27 154.784L125.783 208.908C124.385 211.762 121.12 213.177 118.081 212.246L56.5014 193.364C54.5596 192.769 53.0102 191.296 52.3184 189.386L9.88828 72.2417C8.67279 68.8852 10.4082 65.1789 13.7645 63.963L102.903 31.6766Z" fill="url(#paint0_linear_4523_1038)" stroke="#BFC8D6" stroke-width="2"/>
<path d="M83.3207 75.7606C89.9925 73.1427 97.4872 76.3782 100.071 82.962C101.143 85.6955 102.438 90.5795 101.393 97.5412C100.347 104.509 96.9483 113.621 88.5349 124.789C88.3409 125.043 88.0811 125.239 87.7837 125.356C87.4862 125.472 87.1625 125.505 86.8477 125.451C73.0843 122.985 64.3957 118.617 58.89 114.22C53.3895 109.826 51.0169 105.365 49.9442 102.632C47.3607 96.0481 50.6548 88.5789 57.3266 85.9609C60.591 84.6799 64.3309 85.2718 67.3686 86.2722C68.87 86.7666 70.1583 87.3479 71.0711 87.8049C71.5266 88.033 71.887 88.2289 72.1308 88.3668C72.2526 88.4357 72.3454 88.49 72.4063 88.5262C72.4367 88.5443 72.4595 88.5582 72.4737 88.5669C72.4803 88.5709 72.4849 88.5742 72.4878 88.576L72.4903 88.5772L72.4907 88.5781C72.7588 88.7445 73.0899 88.7741 73.3837 88.6588C73.6774 88.5435 73.8988 88.2961 73.9821 87.9918C73.9823 87.9912 73.9829 87.9904 73.9832 87.9892C73.9842 87.9859 73.986 87.9804 73.9882 87.9726C73.9928 87.9565 73.9999 87.9309 74.01 87.8969C74.03 87.8289 74.0611 87.726 74.1035 87.5927C74.1885 87.3258 74.3195 86.9371 74.4983 86.46C74.8567 85.5042 75.4059 84.2019 76.1703 82.8183C77.717 80.019 80.0563 77.0416 83.3207 75.7606Z" fill="#BFC8D6" stroke="#BFC8D6" stroke-width="2" stroke-linecap="round" stroke-linejoin="round"/>
<circle cx="109.263" cy="181.474" r="9.01607" fill="#BFC8D6"/>
<defs>
<linearGradient id="paint0_linear_4523_1038" x1="58.6746" y1="48.7599" x2="118.595" y2="214.193" gradientUnits="userSpaceOnUse">
<stop offset="0.206215" stop-color="#EAEEF9"/>
<stop offset="0.687453" stop-color="#D6DDE8"/>
</linearGradient>
</defs>
</svg>
