<svg width="207" height="183" viewBox="0 0 207 183" fill="none" xmlns="http://www.w3.org/2000/svg">
<path d="M105.24 178.131C151.058 178.131 188.294 140.732 188.294 94.5914C188.294 48.4505 151.058 10.8901 105.24 10.8901C59.4233 10.8901 22.1868 48.2886 22.1868 94.4295C22.1868 140.57 59.4233 178.131 105.24 178.131Z" fill="#EAEEF9"/>
<path d="M166.438 24.9751L196.066 70.4684L196.551 70.9541L106.212 182.178L16.3589 70.9541L17.1684 70.4684L46.31 24.9751H166.438Z" fill="white"/>
<path d="M137.297 70.4684L106.212 182.178L77.0708 70.4684L106.212 24.9751L137.297 70.4684Z" fill="#E7EAF4"/>
<path d="M196.39 70.9541L106.212 182.178L137.297 70.4684L166.438 24.9751L196.39 70.9541Z" fill="#DBDFEC"/>
<path d="M17.1685 70.4684L46.3101 24.9751L77.0707 70.4684H17.1685Z" fill="#F1F3FA"/>
<path d="M69.1374 58.9737L77.0704 56.5452C77.718 56.3833 77.718 55.5738 77.0704 55.4119L69.1374 52.9835C68.9755 52.9835 68.8136 52.8216 68.6517 52.4978L66.3851 44.7267C66.2232 44.0791 65.4137 44.0791 65.2518 44.7267L62.8233 52.6597C62.8233 52.8216 62.6614 52.9835 62.3376 53.1454L54.4046 55.5738C53.757 55.7357 53.757 56.5452 54.4046 56.7071L62.3376 59.1356C62.4995 59.1356 62.6614 59.2975 62.8233 59.6213L65.2518 67.5543C65.4137 68.2019 66.2232 68.2019 66.3851 67.5543L68.8136 59.6213C68.8136 59.1356 68.9755 58.9737 69.1374 58.9737Z" fill="#F96700" fill-opacity="0.4"/>
<path d="M13.1203 89.0866L18.6248 84.5535C18.9486 84.2297 18.7867 83.5821 18.301 83.5821L11.1775 84.2297C11.0156 84.2297 10.8537 84.2297 10.6918 84.0678L6.15868 78.5632C5.83489 78.2394 5.1873 78.4013 5.1873 78.887L5.83489 86.0105C5.83489 86.1724 5.83489 86.3343 5.67299 86.4962L0.168458 91.0294C-0.155338 91.3532 0.00655984 92.0008 0.492254 92.0008L7.61577 91.3532C7.77766 91.3532 7.93956 91.3532 8.10146 91.5151L12.6346 97.0196C12.9584 97.3434 13.606 97.1815 13.606 96.6958L12.9584 89.5723C12.7965 89.4104 12.9584 89.2485 13.1203 89.0866Z" fill="#A1D700" fill-opacity="0.5"/>
<path d="M67.3565 7.81391L71.0801 4.89975C71.4039 4.73785 71.242 4.25215 70.7563 4.25215L66.0613 4.73785C65.8994 4.73785 65.8994 4.73785 65.7375 4.57595L62.8233 0.852296C62.6614 0.5285 62.1757 0.690398 62.1757 1.17609L62.6614 5.87113C62.6614 6.03303 62.6614 6.03303 62.4995 6.19493L58.7759 9.10909C58.4521 9.27099 58.614 9.75669 59.0997 9.75669L63.7947 9.27099C63.9566 9.27099 63.9566 9.27099 64.1185 9.43289L67.0327 13.1565C67.1946 13.4803 67.6803 13.3184 67.6803 12.8327L67.1946 8.13771C67.1946 7.97581 67.1946 7.81391 67.3565 7.81391Z" fill="#A2E7EC"/>
<path d="M188.294 151.579L194.77 154.979C195.256 155.303 195.741 154.655 195.417 154.17L191.856 147.694C191.694 147.532 191.694 147.37 191.856 147.208L195.256 140.732C195.579 140.246 194.932 139.761 194.446 140.085L187.97 143.646C187.808 143.808 187.646 143.808 187.484 143.646L181.009 140.246C180.523 139.923 180.037 140.57 180.361 141.056L183.923 147.532C184.085 147.694 184.085 147.856 183.923 148.018L180.523 154.494C180.199 154.979 180.847 155.465 181.332 155.141L187.808 151.579C187.97 151.579 188.132 151.579 188.294 151.579Z" fill="#F96700" fill-opacity="0.4"/>
<path d="M52.6231 142.351L57.6419 144.942C57.9657 145.103 58.4514 144.78 58.1276 144.456L55.3754 139.599C55.3754 139.437 55.3754 139.275 55.3754 139.275L57.9657 134.256C58.1276 133.933 57.8038 133.447 57.48 133.771L52.6231 136.523C52.4612 136.523 52.2993 136.523 52.2993 136.523L47.2805 133.933C46.9567 133.771 46.471 134.094 46.7948 134.418L49.547 139.275C49.547 139.437 49.547 139.599 49.547 139.599L46.9567 144.618C46.7948 144.942 47.1186 145.427 47.4424 145.103L52.2993 142.351C52.4612 142.351 52.6231 142.351 52.6231 142.351Z" fill="#A2E7EC"/>
<path d="M49.2239 178.778L54.0809 181.207C54.4047 181.369 54.8904 181.045 54.5666 180.721L51.8143 176.026C51.8143 175.864 51.8143 175.702 51.8143 175.702L54.2428 170.845C54.4047 170.522 54.0809 170.036 53.7571 170.36L49.062 172.95C48.9001 172.95 48.7382 172.95 48.7382 172.95L43.8813 170.522C43.5575 170.36 43.0718 170.683 43.3956 171.007L46.1479 175.702C46.1479 175.864 46.1479 176.026 46.1479 176.026L43.7194 180.883C43.5575 181.207 43.8813 181.693 44.2051 181.369L48.9001 178.617C49.062 178.778 49.2239 178.778 49.2239 178.778Z" fill="#A1D700" fill-opacity="0.5"/>
<path d="M141.344 8.46176L146.201 10.8902C146.525 11.0521 146.849 10.7283 146.687 10.4045L144.096 5.70949C144.096 5.54759 144.096 5.3857 144.096 5.3857L146.525 0.690655C146.687 0.366859 146.363 0.0430627 146.039 0.204961L141.344 2.79533C141.182 2.79533 141.02 2.79533 141.02 2.79533L136.001 0.0430627C135.678 -0.118835 135.354 0.204961 135.516 0.528757L138.106 5.2238C138.106 5.3857 138.106 5.5476 138.106 5.5476L135.678 10.4045C135.516 10.7283 135.84 11.0521 136.163 10.8902L140.858 8.46176C141.02 8.29986 141.182 8.29986 141.344 8.46176Z" fill="#F96700" fill-opacity="0.4"/>
<path d="M196.389 70.9541L137.296 70.4684L166.438 24.9751L196.389 70.9541Z" fill="#F1F3FA"/>
<path d="M137.297 70.4684H77.0708L106.212 24.9751L137.297 70.4684Z" fill="#F1F3FA"/>
<path d="M110.907 28.0513L119.973 25.299C120.621 25.1371 120.621 24.1657 119.973 24.0038L110.907 21.2515C110.745 21.2515 110.421 21.0896 110.421 20.7658L107.669 11.6996C107.507 11.052 106.536 11.052 106.374 11.6996L103.621 20.7658C103.621 20.9277 103.46 21.2515 103.136 21.2515L93.9076 24.0038C93.26 24.1657 93.26 25.1371 93.9076 25.299L102.974 28.0513C103.136 28.0513 103.46 28.2132 103.46 28.537L106.212 37.6032C106.374 38.2508 107.345 38.2508 107.507 37.6032L110.259 28.537C110.421 28.3751 110.583 28.2132 110.907 28.0513Z" fill="#A1D700" fill-opacity="0.5"/>
<path d="M199.142 72.2496L206.265 70.145C206.751 69.9831 206.751 69.1736 206.265 69.1736L199.142 67.0689C198.98 67.0689 198.818 66.907 198.818 66.7451L196.713 59.6216C196.551 59.1359 195.742 59.1359 195.742 59.6216L193.637 66.7451C193.637 66.907 193.475 67.0689 193.313 67.0689L186.19 69.1736C185.704 69.3355 185.704 70.145 186.19 70.145L193.313 72.2496C193.475 72.2496 193.637 72.4115 193.637 72.5734L195.742 79.6969C195.904 80.1826 196.713 80.1826 196.713 79.6969L198.818 72.5734C198.818 72.4115 198.98 72.2496 199.142 72.2496Z" fill="#A2E7EC"/>
</svg>
