<svg width="193" height="173" viewBox="0 0 193 173" fill="none" xmlns="http://www.w3.org/2000/svg">
<path d="M102.926 0L108.675 1.7122L105.862 26.1722L102.804 25.0715L102.926 0Z" fill="#FF5067" fill-opacity="0.35"/>
<path d="M102.56 27.8845L105.372 28.9852L105.006 31.3089L102.193 30.3305L102.56 27.8845Z" fill="#FF5067" fill-opacity="0.35"/>
<path d="M113.2 13.0862L118.948 14.6761L116.257 30.3305L113.077 29.2298L113.2 13.0862Z" fill="#FF5067" fill-opacity="0.7"/>
<path d="M112.833 31.9204L115.646 33.0211L115.279 35.2225L112.466 34.2441L112.833 31.9204Z" fill="#FF5067" fill-opacity="0.7"/>
<path d="M142.796 121.322H67.5817C67.5817 121.322 71.7399 119.976 64.5242 121.322C57.1862 122.667 57.1862 122.422 57.7977 117.775C58.4092 113.128 62.812 108.358 66.2364 103.221C65.8695 98.3292 67.4594 93.1926 73.2075 88.4229C73.2075 88.3006 73.2075 88.1783 73.2075 88.056C70.3946 60.0493 85.1929 69.2218 97.5452 64.5744L95.9554 63.4737L114.056 55.6465C114.056 55.6465 119.192 56.9918 123.962 59.6824C127.509 61.7615 130.811 64.4521 131.3 67.8765C131.912 71.7901 131.3 76.9267 130.444 81.6964C129.71 85.9769 128.854 89.8905 128.609 92.4588C128.609 92.948 128.487 93.3149 128.487 93.6818C129.343 97.7177 134.969 103.71 134.235 107.624C136.192 109.703 138.638 115.94 139.005 118.631C139.494 121.322 142.796 121.322 142.796 121.322Z" fill="#DDE3EE"/>
<path opacity="0.1" d="M130.444 81.6966C129.71 85.9771 128.854 89.8907 128.609 92.5813C126.775 95.8834 123.473 97.9625 118.948 100.531C117.969 101.142 116.746 101.632 115.645 101.998C114.056 102.488 112.466 102.977 110.876 103.221C105.984 104.2 100.969 104.444 95.9552 103.466C91.797 102.61 87.6388 101.265 83.8475 99.0632C82.6245 98.3294 81.2792 97.4733 80.1785 96.4949C76.8763 93.682 74.308 91.236 72.9627 88.3008C71.7397 85.8548 71.4951 83.0419 72.1066 79.2506C73.5742 71.1788 75.531 65.0638 75.531 65.0638C75.6533 64.4523 76.6318 63.5962 76.9987 63.107C77.6102 62.4955 77.9771 61.7617 78.5886 61.1502C79.567 59.9272 80.79 58.5819 81.7684 57.3589C84.2144 54.9129 86.905 52.9561 90.0848 51.7331C95.2214 49.8985 100.725 50.1431 105.984 50.8769C109.775 51.3661 113.811 52.2223 117.235 54.1791C119.804 55.6467 121.883 57.4812 123.717 59.8049C124.084 60.1718 124.329 60.661 124.696 61.0279C126.775 64.0854 128.242 67.5098 129.955 70.8119C130.077 70.8119 130.444 75.337 130.444 81.6966Z" fill="#AAB2C5"/>
<path d="M27.7119 121.444H186.824" stroke="#D6DCE8" stroke-width="1.5905" stroke-miterlimit="10" stroke-linecap="round" stroke-linejoin="round"/>
<path d="M9 121.444H19.1509" stroke="#D6DCE8" stroke-width="1.5905" stroke-miterlimit="10" stroke-linecap="round" stroke-linejoin="round"/>
<path d="M119.559 90.8689C118.581 91.4804 117.358 91.9696 116.257 92.3365C114.789 92.8257 113.077 93.3149 111.487 93.5595C106.595 94.5379 101.581 94.7825 96.5668 93.6818C92.4086 92.8257 88.2503 91.4804 84.459 89.279C83.1137 88.5452 81.8907 87.6891 80.79 86.7107C74.5527 81.4518 71.2506 77.5382 72.7182 69.4664C74.1858 61.3946 76.0203 55.4019 76.0203 55.4019C76.1426 54.7904 77.121 53.9343 77.4879 53.4451C78.0994 52.8336 78.4663 52.0998 79.0778 51.4883C80.0562 50.2653 81.1569 48.92 82.2576 47.697C84.7036 45.251 87.3942 43.2942 90.574 42.0712C95.7107 40.2367 101.214 40.4813 106.473 41.2151C110.387 41.7043 114.3 42.5604 117.725 44.5172C120.782 46.2294 123.106 48.5531 125.063 51.366C127.142 54.4235 128.609 57.8479 130.322 61.2723C130.322 61.2723 130.933 67.6319 130.688 75.826C130.688 84.0201 126.653 86.9553 119.559 90.8689Z" fill="#EAEEF9"/>
<path d="M93.1424 70.078C91.9194 70.9341 90.0849 74.2362 84.9483 71.5456C77.7326 67.632 79.5671 57.848 84.0922 55.1574C92.164 50.3877 99.502 53.8121 99.8689 61.2724C100.236 69.2219 95.7107 68.4881 93.1424 70.078Z" fill="#BFC8D6"/>
<path d="M133.868 116.797C132.89 118.02 133.135 119.854 134.48 120.833C135.214 121.322 135.947 121.811 136.314 123.034C137.17 125.48 144.998 131.228 149.034 130.005C153.192 128.782 157.717 125.725 156.616 120.71C155.638 115.696 151.235 113.25 149.034 113.128C146.832 112.883 139.127 112.027 136.559 113.984C135.581 114.84 134.602 115.941 133.868 116.797Z" fill="#EAEEF9"/>
<path d="M69.5384 116.797C70.5168 118.02 70.2722 119.854 68.9269 120.833C68.1931 121.322 67.4593 121.811 67.0924 123.034C66.2363 125.48 58.4091 131.228 54.3732 130.005C50.3373 128.782 45.6899 125.725 46.7906 120.71C47.769 115.696 52.1718 113.25 54.3732 113.128C56.5746 113.005 64.2795 112.027 66.8478 113.984C67.9485 114.84 68.9269 115.941 69.5384 116.797Z" fill="#EAEEF9"/>
<path d="M88.9843 68.4882C92.1641 68.8551 94.977 66.5314 95.3439 63.3516C95.7108 60.1718 93.3871 57.3589 90.2073 56.992C87.0275 56.6251 84.2146 58.9488 83.8477 62.1286C83.4808 65.3084 85.8045 68.1213 88.9843 68.4882Z" fill="white"/>
<path d="M94.61 63.9629C94.3654 66.4089 92.164 68.2434 89.718 67.9988C87.272 67.7542 85.4374 65.5528 85.682 63.1068C86.0489 63.4737 86.5381 63.8406 87.0273 63.9629C88.128 64.0852 89.1065 63.3514 89.2288 62.1284C89.3511 61.0277 88.6172 60.0493 87.5165 59.927C88.3726 59.3155 89.4734 59.0709 90.5741 59.1932C93.1424 59.3155 94.8546 61.3946 94.61 63.9629Z" fill="#989FB0"/>
<path d="M116.869 71.4233C120.048 71.7902 122.861 69.4665 123.228 66.2866C123.595 63.1068 121.271 60.2939 118.092 59.927C114.912 59.5601 112.099 61.8838 111.732 65.0636C111.365 68.3658 113.689 71.1787 116.869 71.4233Z" fill="white"/>
<path d="M112.221 65.7974C111.977 68.2434 113.811 70.4448 116.257 70.6894C118.703 70.934 120.905 69.0995 121.149 66.6535C120.782 67.0204 120.171 67.265 119.682 67.1427C118.581 67.0204 117.725 66.042 117.847 64.9413C117.969 63.8406 118.948 63.1068 120.049 63.1068C119.315 62.373 118.336 61.8838 117.236 61.7615C114.79 61.5169 112.588 63.2291 112.221 65.7974Z" fill="#989FB0"/>
<path d="M92.5309 49.0424C90.4518 49.4093 88.6173 49.7762 87.1497 50.7546C85.6821 51.733 84.2145 53.3229 83.4807 55.1574C83.4807 55.2797 83.3584 55.2797 83.2361 55.2797C83.1138 55.2797 83.1138 55.1574 83.1138 55.1574C83.2361 54.179 83.7253 53.0783 84.3368 52.2222C84.826 51.2438 85.6821 50.51 86.6605 49.8985C87.6389 49.287 88.495 48.7978 89.5957 48.4309C90.6964 48.3086 91.7971 48.1863 92.7755 48.6755C92.6532 48.6755 92.8978 48.9201 92.5309 49.0424C92.6532 49.0424 92.6532 49.0424 92.5309 49.0424Z" fill="#989FB0"/>
<path d="M117.602 53.4451C119.437 54.1789 121.027 54.9127 122.372 56.1357C123.595 57.3587 124.573 59.1932 124.94 61.0277C124.94 61.15 125.063 61.15 125.185 61.15C125.307 61.15 125.307 61.0277 125.307 61.0277C125.43 60.0493 125.063 58.9486 124.818 58.0925C124.451 57.1141 123.962 56.1357 123.106 55.4019C122.372 54.6681 121.638 53.9343 120.66 53.4451C119.681 53.0782 118.581 52.8336 117.602 52.9559C117.48 53.0782 117.48 53.2005 117.602 53.4451C117.602 53.4451 117.358 53.4451 117.602 53.4451Z" fill="#989FB0"/>
<path d="M128.487 48.0639C126.286 45.1287 123.106 45.9848 124.329 49.4092C126.286 54.7904 129.955 57.3587 130.933 77.4159C131.178 80.9626 143.041 73.38 143.041 60.7831C143.041 58.4594 140.228 57.6033 140.228 57.6033C138.516 57.1141 132.034 52.589 128.487 48.0639Z" fill="#989FB0"/>
<path d="M27.7116 57.6034C27.7116 57.6034 14.7478 53.8121 16.8269 58.0926C18.906 62.3731 24.6541 70.9341 33.8266 73.0132C42.9991 74.97 37.4956 66.8982 37.6179 67.0205L27.7116 57.6034Z" fill="#EEEEEE"/>
<g filter="url(#filter0_d_4523_1457)">
<path d="M14.0141 49.2869C17.3162 52.9559 31.1362 58.3371 42.3878 57.8479C43.9777 69.5887 45.2007 73.1354 47.2798 74.603C41.654 76.0706 26.4888 74.8476 24.4097 63.4737C13.7695 63.9629 14.0141 49.2869 14.0141 49.2869Z" fill="url(#paint0_linear_4523_1457)"/>
</g>
<g filter="url(#filter1_d_4523_1457)">
<path d="M160.163 92.7035C163.832 90.2575 170.436 78.8836 171.414 69.0996C181.81 69.0996 184.99 68.6104 186.702 66.8982C187.191 72.0348 186.213 84.6317 177.407 92.092C167.623 93.0704 160.163 92.7035 160.163 92.7035Z" fill="url(#paint1_linear_4523_1457)"/>
</g>
<g filter="url(#filter2_d_4523_1457)">
<path d="M132.645 132.696C115.646 135.508 112.588 135.998 106.106 135.142C99.6242 134.285 90.574 133.185 87.5165 139.055C86.1712 131.35 83.1137 124.257 77.4879 118.876C77.8548 118.386 78.0994 117.653 78.0994 116.919C78.0994 115.451 77.2433 114.228 75.898 113.739C76.1426 113.25 76.2649 112.761 76.2649 112.271C76.2649 110.437 74.7973 108.847 72.8405 108.847C71.7398 108.847 70.7614 109.336 70.1499 110.192C70.2722 109.581 70.3945 109.092 70.3945 108.847C70.3945 107.013 68.9269 105.423 66.9701 105.423C65.9917 105.423 65.0133 105.912 64.4018 106.646C63.9126 105.912 63.1788 105.423 62.2004 105.423C60.7328 105.423 59.6321 106.523 59.6321 107.991C59.6321 108.236 59.6321 108.847 59.6321 109.581C50.9488 106.768 49.1143 106.646 49.1143 106.646C54.3732 96.2501 79.3224 81.0849 97.3005 83.8978C108.797 85.61 121.761 88.7898 128.365 101.387C127.998 101.264 127.631 101.142 127.264 101.142C127.142 101.142 126.897 101.142 126.653 101.264C126.041 100.408 125.063 99.9191 123.962 99.9191C122.25 99.9191 120.904 101.142 120.66 102.732C120.538 102.732 120.048 102.732 119.681 102.732C117.847 102.732 116.379 104.2 116.379 106.034C116.379 107.379 117.235 108.602 118.458 109.092C117.847 109.703 117.48 110.437 117.48 111.415C117.48 113.25 118.948 114.717 120.782 114.717C122.005 114.717 122.984 114.106 123.595 113.25C124.207 114.106 125.185 114.717 126.408 114.717C128.242 114.717 129.71 113.25 129.71 111.415C129.71 111.293 129.71 111.293 129.71 111.171C130.566 110.804 131.3 110.07 131.545 109.214C133.134 115.329 133.746 123.034 132.645 132.696Z" fill="url(#paint2_linear_4523_1457)"/>
</g>
<path d="M89.9624 123.768C94.7321 122.3 115.034 117.775 126.652 119.12L89.9624 123.768Z" fill="white"/>
<path fill-rule="evenodd" clip-rule="evenodd" d="M105.865 121.174C98.765 122.317 92.5353 123.808 90.1963 124.528L89.7285 123.008C92.1591 122.26 98.4652 120.754 105.613 119.604C112.748 118.456 120.819 117.644 126.744 118.33L126.561 119.91C120.867 119.251 112.979 120.029 105.865 121.174Z" fill="#D6DCE8"/>
<path d="M85.1929 117.286C89.1065 115.573 107.941 111.66 117.48 111.293L85.1929 117.286Z" fill="white"/>
<path fill-rule="evenodd" clip-rule="evenodd" d="M90.7393 116.451C88.2701 117.065 86.4205 117.617 85.5115 118.014L84.874 116.557C85.9218 116.099 87.8941 115.52 90.3552 114.907C92.8364 114.29 95.8696 113.626 99.0754 113.004C105.476 111.764 112.617 110.684 117.449 110.499L117.511 112.088C112.803 112.269 105.758 113.329 99.378 114.566C96.1937 115.183 93.1883 115.841 90.7393 116.451Z" fill="#D6DCE8"/>
<path d="M80.6677 110.07C96.1998 101.387 108.43 105.056 118.458 97.3508L80.6677 110.07Z" fill="white"/>
<path fill-rule="evenodd" clip-rule="evenodd" d="M101.769 104.126C95.5192 105.257 88.6957 106.493 81.0559 110.764L80.2798 109.376C88.156 104.973 95.2009 103.698 101.447 102.568L101.485 102.561C107.764 101.425 113.136 100.438 117.974 96.7202L118.943 97.9815C113.772 101.954 108.037 102.992 101.837 104.114L101.769 104.126Z" fill="#D6DCE8"/>
<path d="M75.6533 104.567C82.2575 100.041 87.8833 97.9623 95.4659 97.3508L75.6533 104.567Z" fill="white"/>
<path fill-rule="evenodd" clip-rule="evenodd" d="M95.5297 98.1435C88.0957 98.743 82.6014 100.77 76.1026 105.223L75.2036 103.91C81.9133 99.3131 87.6705 97.1816 95.4018 96.5581L95.5297 98.1435Z" fill="#D6DCE8"/>
<path d="M116.624 86.7107C116.624 86.833 116.624 87.0776 116.624 87.1999V87.3222C116.624 87.4445 116.624 87.5668 116.502 87.6891C115.768 89.6459 112.588 91.9696 109.286 92.3365C105.984 92.7034 102.559 91.3581 101.092 85.8546C97.5452 89.279 94.1208 89.7682 91.3079 89.0344C87.6389 88.056 85.1929 85.1208 85.0706 84.2647C85.0706 83.8978 85.0706 83.5309 85.1929 83.164C86.049 75.2145 93.7539 69.5887 102.437 70.5671C111.12 71.6678 117.48 78.8835 116.624 86.7107Z" fill="#BFC8D6"/>
<path d="M102.437 71.7902C101.703 71.6679 100.847 71.6679 100.113 71.7902C99.1351 72.0348 97.6675 72.2794 97.4229 73.5024C97.3006 75.0923 100.725 76.9268 101.703 77.0491C102.682 77.1714 106.473 76.193 106.718 74.6031C106.84 73.0132 105.495 72.4017 104.272 72.0348C103.66 71.9125 102.926 71.6679 102.437 71.7902Z" fill="#989FB0"/>
<path fill-rule="evenodd" clip-rule="evenodd" d="M101.425 79.9802C101.368 78.3498 101.17 76.6448 101.006 75.5761L101.994 75.4241C102.163 76.5221 102.366 78.267 102.425 79.945C102.454 80.7837 102.448 81.6157 102.382 82.3467C102.317 83.0644 102.191 83.7372 101.947 84.2237L101.053 83.7765C101.21 83.463 101.324 82.9442 101.386 82.2566C101.447 81.5824 101.454 80.7956 101.425 79.9802Z" fill="#989FB0"/>
<path d="M82.0132 47.4523L81.8909 48.7976C81.2794 49.4091 80.7902 50.1429 80.1787 50.8767C76.9989 55.1572 74.0637 60.783 73.2076 67.8764C72.963 67.0203 70.3947 57.8478 69.9055 56.1356C69.7832 55.7687 69.6609 55.5241 69.6609 55.5241V52.9558L71.9846 47.8192L77.9773 44.7617L82.0132 47.4523Z" fill="#6F788D"/>
<path d="M87.3943 43.6611C85.6821 44.8841 83.7253 46.5963 81.8907 48.7977C81.2792 49.4092 80.79 50.143 80.1785 50.8768C79.9339 47.4524 75.898 46.9632 75.898 46.9632C75.4088 50.0207 72.7182 53.4451 69.783 56.1357C67.337 58.3371 64.6464 59.927 62.9342 60.0493C62.445 60.0493 62.0781 59.6824 62.3227 59.1932C63.5457 56.0134 63.1788 51.366 63.5457 49.0423C64.0349 46.474 71.3729 42.5604 75.1642 41.0928C78.0994 39.9921 85.8044 41.582 87.3943 43.6611Z" fill="#989FB0"/>
<defs>
<filter id="filter0_d_4523_1457" x="0.0136719" y="39.2869" width="53.2661" height="45.8157" filterUnits="userSpaceOnUse" color-interpolation-filters="sRGB">
<feFlood flood-opacity="0" result="BackgroundImageFix"/>
<feColorMatrix in="SourceAlpha" type="matrix" values="0 0 0 0 0 0 0 0 0 0 0 0 0 0 0 0 0 0 127 0" result="hardAlpha"/>
<feOffset dx="-4"/>
<feGaussianBlur stdDeviation="5"/>
<feColorMatrix type="matrix" values="0 0 0 0 0.397708 0 0 0 0 0.47749 0 0 0 0 0.575 0 0 0 0.15 0"/>
<feBlend mode="normal" in2="BackgroundImageFix" result="effect1_dropShadow_4523_1457"/>
<feBlend mode="normal" in="SourceGraphic" in2="effect1_dropShadow_4523_1457" result="shape"/>
</filter>
<filter id="filter1_d_4523_1457" x="146.163" y="56.8982" width="46.6416" height="45.8728" filterUnits="userSpaceOnUse" color-interpolation-filters="sRGB">
<feFlood flood-opacity="0" result="BackgroundImageFix"/>
<feColorMatrix in="SourceAlpha" type="matrix" values="0 0 0 0 0 0 0 0 0 0 0 0 0 0 0 0 0 0 127 0" result="hardAlpha"/>
<feOffset dx="-4"/>
<feGaussianBlur stdDeviation="5"/>
<feColorMatrix type="matrix" values="0 0 0 0 0.397708 0 0 0 0 0.47749 0 0 0 0 0.575 0 0 0 0.15 0"/>
<feBlend mode="normal" in2="BackgroundImageFix" result="effect1_dropShadow_4523_1457"/>
<feBlend mode="normal" in="SourceGraphic" in2="effect1_dropShadow_4523_1457" result="shape"/>
</filter>
<filter id="filter2_d_4523_1457" x="27.1143" y="72.5559" width="128.089" height="99.4993" filterUnits="userSpaceOnUse" color-interpolation-filters="sRGB">
<feFlood flood-opacity="0" result="BackgroundImageFix"/>
<feColorMatrix in="SourceAlpha" type="matrix" values="0 0 0 0 0 0 0 0 0 0 0 0 0 0 0 0 0 0 127 0" result="hardAlpha"/>
<feOffset dy="11"/>
<feGaussianBlur stdDeviation="11"/>
<feColorMatrix type="matrix" values="0 0 0 0 0.397708 0 0 0 0 0.47749 0 0 0 0 0.575 0 0 0 0.27 0"/>
<feBlend mode="normal" in2="BackgroundImageFix" result="effect1_dropShadow_4523_1457"/>
<feBlend mode="normal" in="SourceGraphic" in2="effect1_dropShadow_4523_1457" result="shape"/>
</filter>
<linearGradient id="paint0_linear_4523_1457" x1="30.6359" y1="48.6897" x2="30.6359" y2="75.3808" gradientUnits="userSpaceOnUse">
<stop stop-color="#FDFEFF"/>
<stop offset="0.9964" stop-color="#ECF0F5"/>
</linearGradient>
<linearGradient id="paint1_linear_4523_1457" x1="173.475" y1="66.2997" x2="173.475" y2="93.0498" gradientUnits="userSpaceOnUse">
<stop stop-color="#FDFEFF"/>
<stop offset="0.9964" stop-color="#ECF0F5"/>
</linearGradient>
<linearGradient id="paint2_linear_4523_1457" x1="91.1313" y1="82.2722" x2="91.1313" y2="139.653" gradientUnits="userSpaceOnUse">
<stop stop-color="#FDFEFF"/>
<stop offset="0.9964" stop-color="#ECF0F5"/>
</linearGradient>
</defs>
</svg>
