<svg width="56" height="56" viewBox="0 0 56 56" fill="none" xmlns="http://www.w3.org/2000/svg">
<g clip-path="url(#clip0_5266_26578)">
<rect width="56" height="56" rx="28" fill="#A41B30"/>
<rect width="19.29" height="38.0349" transform="matrix(-0.707042 -0.707171 -0.707171 0.707042 39.9414 30.0127)" fill="#831626"/>
<g clip-path="url(#clip1_5266_26578)">
<path d="M28.8439 41.1092C28.2551 41.698 27.4851 42 26.7151 42C25.9451 42 25.1751 41.698 24.5863 41.1092L15.2104 31.7333C14.0328 30.5556 14.0328 28.6382 15.2104 27.4605L26.9718 15.6992C27.5304 15.1405 28.3004 14.8235 29.1006 14.8235H38.4765C40.1373 14.8235 41.4961 16.1823 41.4961 17.8431V27.219C41.4961 28.0192 41.179 28.7892 40.6053 29.3478L28.8439 41.1092Z" fill="#D7AD51"/>
<path d="M35.0795 23.1274C34.0372 23.1274 33.1923 22.2825 33.1923 21.2402C33.1923 20.1979 34.0372 19.3529 35.0795 19.3529C36.1218 19.3529 36.9668 20.1979 36.9668 21.2402C36.9668 22.2825 36.1218 23.1274 35.0795 23.1274Z" fill="#A41B30"/>
<g clip-path="url(#clip2_5266_26578)">
<path d="M26.8574 35.6414L26.8397 24.6617" stroke="#A41B30" stroke-width="2.58793" stroke-linecap="round" stroke-linejoin="round"/>
<path d="M30.9667 30.6024C30.7136 30.3501 30.7129 29.9405 30.9652 29.6874C31.2174 29.4344 31.6271 29.4337 31.8802 29.686C32.1332 29.9382 32.1339 30.3479 31.8816 30.6009C31.6294 30.854 31.2197 30.8547 30.9667 30.6024Z" fill="#A41B30" stroke="#A41B30" stroke-width="2.58793" stroke-linecap="round" stroke-linejoin="round"/>
<path d="M21.8182 30.6183C21.5652 30.366 21.5645 29.9564 21.8168 29.7033C22.069 29.4502 22.4786 29.4496 22.7317 29.7018C22.9848 29.9541 22.9854 30.3637 22.7332 30.6168C22.4809 30.8699 22.0713 30.8705 21.8182 30.6183Z" fill="#A41B30" stroke="#A41B30" stroke-width="2.58793" stroke-linecap="round" stroke-linejoin="round"/>
</g>
</g>
</g>
<defs>
<clipPath id="clip0_5266_26578">
<rect width="56" height="56" rx="28" fill="white"/>
</clipPath>
<clipPath id="clip1_5266_26578">
<rect width="28" height="28" fill="white" transform="matrix(-1 0 0 1 41.9995 14)"/>
</clipPath>
<clipPath id="clip2_5266_26578">
<rect width="12.9396" height="12.9396" fill="white" transform="matrix(-0.708246 -0.705965 -0.705965 0.708246 35.9995 30.1348)"/>
</clipPath>
</defs>
</svg>
